<?xml version="1.0" standalone="no"?>
<!DOCTYPE svg PUBLIC "-//W3C//DTD SVG 20010904//EN"
 "http://www.w3.org/TR/2001/REC-SVG-20010904/DTD/svg10.dtd">
<svg version="1.0" xmlns="http://www.w3.org/2000/svg"
 width="512.000000pt" height="512.000000pt" viewBox="0 0 512.000000 512.000000"
 preserveAspectRatio="xMidYMid meet">
<metadata>
Created by potrace 1.16, written by Peter Selinger 2001-2019
</metadata>
<g transform="translate(0.000000,512.000000) scale(0.100000,-0.100000)"
fill="#000000" stroke="none">
<path d="M955 4599 c-137 -20 -298 -134 -363 -257 -61 -115 -62 -124 -62 -743
l-1 -564 -45 -34 c-61 -46 -131 -147 -159 -229 -15 -42 -26 -105 -30 -168 l-7
-101 -38 -12 c-71 -21 -190 -155 -190 -213 0 -13 -8 -18 -30 -18 l-30 0 0
-605 0 -605 28 0 c23 0 30 -7 46 -48 39 -95 143 -178 247 -197 l37 -7 4 -87
c5 -100 24 -144 76 -174 31 -18 32 -18 66 2 50 31 66 74 66 175 l0 86 1990 0
1990 0 0 -86 c0 -101 16 -144 66 -175 34 -20 35 -20 66 -2 52 30 71 74 76 174
l4 87 37 7 c104 19 208 102 247 197 16 41 23 48 47 48 l27 0 0 605 0 605 -30
0 c-22 0 -30 5 -30 18 0 58 -119 192 -190 213 l-38 12 -7 101 c-4 55 -16 128
-27 161 -27 81 -99 186 -158 232 l-49 38 -1 564 c0 620 -1 628 -62 744 -38 70
-145 174 -214 206 -125 60 6 56 -1719 57 -869 1 -1607 -2 -1640 -7z m3281
-214 c29 -8 62 -28 81 -47 64 -67 63 -51 63 -663 l0 -555 -144 0 -144 0 -4
178 -3 177 -34 63 c-51 93 -125 149 -229 171 -72 15 -772 15 -844 0 -106 -23
-191 -89 -238 -184 -23 -46 -25 -63 -28 -227 l-4 -178 -148 0 -148 0 -4 178
c-3 164 -5 181 -28 227 -29 59 -93 126 -147 153 -73 37 -132 42 -513 42 -381
0 -440 -5 -513 -42 -54 -27 -118 -94 -147 -153 -23 -46 -25 -63 -28 -227 l-4
-178 -144 0 -144 0 0 558 c0 521 2 560 19 597 25 54 69 93 122 110 68 21 3283
22 3355 0z m-2047 -889 c8 -9 11 -69 9 -192 l-3 -179 -475 0 -475 0 -3 179
c-2 123 1 183 9 192 17 21 921 21 938 0z m1680 0 c8 -9 11 -69 9 -192 l-3
-179 -475 0 -475 0 -3 184 c-2 141 1 186 10 193 7 4 218 8 469 8 376 0 459 -2
468 -14z m626 -608 c89 -49 117 -105 123 -255 l5 -113 -2062 0 -2061 0 0 88
c1 103 13 165 42 208 24 36 73 71 114 84 16 5 880 8 1919 7 1739 -2 1892 -3
1920 -19z m365 -597 c14 -27 14 -1235 0 -1262 -11 -19 -47 -19 -2300 -19
-2253 0 -2289 0 -2300 19 -14 27 -14 1235 0 1262 11 19 47 19 2300 19 2253 0
2289 0 2300 -19z"/>
</g>
</svg>
