<?xml version="1.0" standalone="no"?>
<!DOCTYPE svg PUBLIC "-//W3C//DTD SVG 20010904//EN"
 "http://www.w3.org/TR/2001/REC-SVG-20010904/DTD/svg10.dtd">
<svg version="1.0" xmlns="http://www.w3.org/2000/svg"
 width="300.000000pt" height="300.000000pt" viewBox="0 0 300.000000 300.000000"
 preserveAspectRatio="xMidYMid meet">
<metadata>
Created by potrace 1.10, written by Peter Selinger 2001-2011
</metadata>
<g transform="translate(0.000000,300.000000) scale(0.100000,-0.100000)"
fill="#000000" stroke="none">
<path d="M2275 2819 c-206 -26 -377 -190 -415 -399 -17 -96 1 -192 61 -311
l28 -57 -87 -42 c-48 -23 -149 -71 -225 -107 l-137 -66 -123 58 c-67 32 -214
103 -326 157 l-203 98 -97 -46 c-53 -26 -199 -96 -326 -156 -126 -60 -233
-113 -238 -117 -4 -4 -7 -178 -5 -387 2 -464 2 -446 0 -893 -2 -201 1 -368 5
-372 5 -4 155 64 334 151 319 154 327 157 355 142 16 -8 30 -16 32 -17 1 -1
-9 -49 -23 -106 -31 -129 -31 -145 -1 -164 22 -14 28 -14 82 6 77 28 88 39
114 110 12 32 24 59 26 59 3 0 92 -42 199 -94 l195 -94 327 157 327 157 329
-158 c180 -87 330 -158 333 -158 2 0 4 374 4 830 l0 831 -84 40 -85 41 23 37
c43 67 95 179 122 258 23 68 26 90 22 170 -4 79 -10 102 -41 168 -65 137 -215
253 -346 270 -25 3 -57 7 -71 9 -14 1 -52 -1 -85 -5z m180 -44 c154 -41 279
-165 319 -320 32 -122 11 -218 -89 -414 -77 -151 -323 -521 -346 -521 -8 0
-94 118 -169 230 -24 36 -44 67 -46 69 -2 2 -10 1 -19 -3 -15 -5 -14 -10 4
-40 21 -34 21 -42 22 -648 l1 -613 -304 -147 c-167 -80 -305 -147 -308 -147
-3 -1 -4 142 -2 317 l3 318 34 13 c60 21 104 106 90 172 -9 40 -52 89 -92 105
l-33 14 0 323 0 324 221 106 c122 59 223 106 224 105 2 -2 12 -22 24 -45 21
-42 34 -52 45 -34 4 5 -19 57 -49 117 -67 130 -95 217 -95 294 0 67 26 160 63
223 31 53 124 140 178 168 95 48 219 61 324 34z m-1625 -1069 l0 -395 -55 34
-56 33 -66 -21 c-72 -24 -102 -54 -87 -87 5 -10 66 -69 137 -130 l127 -111 0
-68 0 -69 -96 -41 c-52 -22 -100 -41 -106 -41 -5 0 -68 34 -138 75 l-128 76
-40 -16 c-24 -10 -42 -25 -45 -37 -6 -21 -1 -27 141 -154 30 -26 33 -33 23
-52 -36 -67 12 -152 86 -152 21 0 98 19 171 43 l132 43 0 -61 0 -60 -158 -75
c-86 -41 -224 -107 -307 -147 -82 -40 -150 -71 -151 -70 -3 4 -7 825 -5 1207
l1 376 303 146 c166 80 305 146 310 147 4 1 7 -176 7 -393z m172 331 c73 -35
211 -101 306 -147 l172 -83 0 -324 c0 -221 -3 -323 -11 -323 -5 0 -58 -20
-116 -45 l-105 -45 -92 53 c-89 51 -91 53 -82 79 12 35 -5 75 -39 88 -19 7
-38 5 -74 -9 -45 -17 -51 -17 -75 -2 l-26 16 0 402 c0 222 2 403 5 403 2 0 64
-28 137 -63z m1713 -194 l75 -37 0 -793 c0 -436 -2 -793 -4 -793 -1 0 -126 60
-277 133 -151 73 -289 139 -306 146 l-33 13 0 592 c1 443 3 586 12 571 6 -11
38 -57 70 -102 59 -82 81 -97 114 -75 15 9 183 246 229 323 20 32 38 59 41 59
2 0 37 -17 79 -37z m-1750 -648 c130 -76 234 -140 230 -143 -3 -3 -55 -27
-116 -53 l-111 -48 -181 161 c-100 88 -182 167 -182 175 0 17 81 53 107 48 9
-1 123 -65 253 -140z m74 47 c19 -36 -3 -46 -50 -21 -42 22 -43 23 -19 30 42
12 59 10 69 -9z m499 -128 l37 -17 -51 -16 c-28 -9 -58 -22 -67 -30 -25 -20
-21 -58 8 -77 23 -15 29 -15 85 4 68 23 75 17 37 -39 -20 -30 -37 -39 -137
-71 -63 -21 -123 -41 -133 -44 -17 -5 -17 -3 -7 16 24 44 -3 43 -168 -10 -158
-51 -160 -52 -166 -83 l-6 -32 -218 -68 c-119 -37 -223 -68 -230 -67 -22 0
-62 48 -62 73 0 13 10 33 22 44 17 15 756 337 969 422 34 14 45 13 87 -5z m72
-75 c0 -7 -101 -39 -123 -39 -20 0 -22 15 -4 27 6 4 35 15 62 24 46 14 64 11
65 -12z m-681 -101 c1 -5 -53 -28 -65 -28 -2 0 -4 21 -4 46 l0 46 34 -29 c19
-15 35 -31 35 -35z m-458 -80 c60 -35 109 -65 109 -68 0 -3 -22 -14 -48 -26
l-48 -21 -85 74 c-46 40 -85 77 -87 82 -3 8 14 16 42 20 5 0 57 -27 117 -61z
m818 -36 c0 -14 -2 -14 -8 2 -6 15 -38 -53 -130 -270 -68 -159 -127 -294 -132
-299 -13 -17 -110 -48 -119 -39 -5 5 19 128 53 273 l62 264 119 38 c65 20 123
42 129 48 13 13 27 4 26 -17z m193 -292 c2 -171 2 -310 1 -310 -3 0 -357 171
-361 175 -10 10 22 44 47 50 76 17 109 93 58 132 l-23 17 39 92 40 92 91 30
c50 17 94 30 98 31 4 1 9 -139 10 -309z m-543 52 l-21 -92 -29 15 c-27 15 -29
19 -29 79 l0 62 48 16 c26 8 48 14 50 13 1 -1 -7 -43 -19 -93z m278 -66 c-3
-8 -20 -22 -37 -31 -31 -16 -31 -16 -21 4 6 11 16 32 21 47 10 25 12 26 27 12
9 -9 13 -23 10 -32z"/>
<path d="M2374 2738 c67 -37 133 -97 170 -156 31 -50 66 -150 67 -194 0 -26 2
-29 8 -13 10 25 -13 113 -46 179 -45 90 -157 191 -233 210 -14 4 1 -8 34 -26z"/>
<path d="M2250 2545 c-142 -64 -178 -244 -71 -358 85 -92 246 -90 325 4 45 53
59 95 54 165 -5 74 -37 130 -99 171 -52 34 -153 43 -209 18z m158 -30 c49 -21
81 -52 103 -100 62 -134 -55 -283 -204 -261 -53 8 -122 63 -143 113 -40 95 3
199 101 244 49 23 94 24 143 4z"/>
<path d="M2610 2307 c0 -84 -114 -315 -269 -547 -72 -107 -77 -115 -64 -107
16 10 143 200 198 296 55 95 130 263 140 312 3 19 9 42 11 52 3 9 1 17 -5 17
-6 0 -11 -10 -11 -23z"/>
<path d="M2054 1903 c20 -38 45 -70 46 -58 0 11 -48 85 -56 85 -2 0 2 -12 10
-27z"/>
<path d="M1564 1478 c-4 -7 0 -16 11 -22 10 -6 40 -30 65 -53 48 -44 70 -53
70 -30 0 23 -108 117 -134 117 -3 0 -8 -5 -12 -12z"/>
<path d="M1766 1262 c-8 -14 87 -142 107 -142 25 0 22 9 -28 75 -25 33 -45 63
-45 68 0 10 -28 9 -34 -1z"/>
<path d="M1960 1037 c0 -18 94 -67 135 -70 52 -4 36 19 -32 47 -98 39 -103 41
-103 23z"/>
<path d="M1358 1477 c-34 -18 -64 -40 -66 -50 -5 -23 12 -21 56 7 20 14 51 28
67 32 31 7 47 22 39 36 -9 14 -31 9 -96 -25z"/>
<path d="M1201 1289 c-15 -44 -14 -69 3 -69 19 0 22 6 31 58 5 34 4 42 -8 42
-8 0 -20 -14 -26 -31z"/>
<path d="M2621 1804 c0 -11 3 -14 6 -6 3 7 2 16 -1 19 -3 4 -6 -2 -5 -13z"/>
<path d="M2622 1740 c0 -14 2 -19 5 -12 2 6 2 18 0 25 -3 6 -5 1 -5 -13z"/>
<path d="M2616 1618 c-9 -130 -5 -1278 5 -1284 7 -4 16 508 10 548 0 4 -1 190
-1 413 -1 223 -3 405 -4 405 -2 0 -6 -37 -10 -82z"/>
<path d="M2440 1472 c0 -10 14 -31 30 -47 23 -22 33 -26 42 -17 9 9 4 20 -22
47 -38 39 -50 43 -50 17z"/>
<path d="M2520 1253 c0 -16 -8 -49 -17 -76 -13 -36 -14 -50 -5 -59 9 -9 16 -1
31 33 10 24 22 63 26 87 6 38 5 42 -14 42 -16 0 -21 -6 -21 -27z"/>
<path d="M2340 1014 c-30 -13 -63 -24 -73 -24 -12 0 -17 -6 -15 -17 4 -22 32
-19 108 10 33 13 56 29 58 40 4 22 -10 20 -78 -9z"/>
<path d="M287 2813 c-4 -3 -7 -16 -7 -29 0 -23 -51 -74 -75 -74 -7 0 -18 -7
-25 -15 -10 -11 -6 -17 22 -28 39 -17 62 -41 75 -81 11 -35 31 -45 39 -19 14
44 29 62 70 88 24 15 44 31 44 35 0 3 -18 14 -39 23 -29 13 -45 29 -61 62 -21
44 -30 52 -43 38z m43 -155 l-31 -28 -24 28 -24 27 27 28 26 27 28 -27 28 -27
-30 -28z"/>
<path d="M534 2664 c-8 -44 -64 -102 -105 -111 -38 -7 -58 -31 -33 -38 64 -19
90 -42 120 -103 18 -35 35 -64 39 -65 4 -1 13 15 20 36 17 50 39 73 103 109
29 17 51 35 50 40 -2 6 -21 16 -42 23 -50 17 -68 35 -96 95 -28 59 -47 64 -56
14z m50 -75 c10 -17 31 -39 48 -48 l29 -18 -35 -21 c-20 -12 -44 -35 -55 -53
-18 -29 -19 -30 -26 -10 -4 12 -22 38 -42 57 -19 20 -33 36 -31 38 1 1 16 10
31 20 15 9 33 28 39 42 14 31 20 30 42 -7z"/>
<path d="M284 2483 c-16 -50 -26 -62 -69 -83 -51 -25 -51 -25 -3 -48 21 -11
41 -33 56 -62 24 -48 44 -58 50 -25 5 27 48 71 83 85 37 16 37 37 -1 45 -32 7
-67 44 -76 82 -7 27 -32 31 -40 6z m74 -117 c-2 0 -15 -12 -30 -25 l-27 -23
-24 28 -25 28 26 27 25 27 29 -30 c16 -17 27 -31 26 -32z"/>
<path d="M161 1894 c0 -11 3 -14 6 -6 3 7 2 16 -1 19 -3 4 -6 -2 -5 -13z"/>
</g>
</svg>
