<svg id="Layer_1" data-name="Layer 1" xmlns="http://www.w3.org/2000/svg" viewBox="0 0 512 512"><title>globe-pointers-glyph</title><path id="icon" d="M475.69,123.5C433.56,52.59,354.63,5,275,.71c-105.54-8-207,51.66-251.59,147.74C-8.67,213-7.44,304,25,367.69c41.23,88.16,138,148.1,235.31,144.13C359.1,511.68,452.6,446,490.87,357.26,524.53,285.88,516.89,189.66,475.69,123.5ZM251.41,490.36c-40.34-27.14-73.83-66.44-94.56-109.12,29-13.52,60.41-20.32,94.9-21.21Zm33.18,5.13a312,312,0,0,0,77-83.57c4.36-6.94,8-13.51,11.9-20.78,18.19,9.33,34.85,22.12,50.58,37.14C385.4,465.61,337.24,489,284.59,495.49Zm-18.22-5.65.57-129.74c31.56,1.86,63.57,9.42,91.58,23l1.75,1C339.73,425.36,305.07,463.52,266.37,489.85ZM493.75,265.26c1,.57,2.46.23,3.73.37-2.24,56.59-24.09,108.1-63,151.58-16.88-16-35.43-28.86-54.32-39.94,15.34-34.43,25.24-75,25.76-111.81l38.06-.1-.12-.1s-7.3-7.4-14.49-14.56l-23.38,0c-1.32-41.93-10.67-79.56-26.17-115.69-4.27,4.3-7.53,7.55-7.53,7.55l-4.24,4.28a272,272,0,0,1,22.86,103.77l-103.38.24a48.34,48.34,0,0,1,13.29,14.67l86.64-.21,3.38.24c-.41,37.28-10,72.1-23.86,104.43a269.89,269.89,0,0,0-95.44-24.31c-2.38,2.39-4,4-4,4l-8.08,8.13-8.07-8.15L247,345.36a271.2,271.2,0,0,0-96.55,22c-1.61-3.9-2.93-8-4.38-12a48,48,0,0,1,.8,8.05,45.06,45.06,0,0,1-8.58,27c1.57-.89,3.14-1.87,4.71-2.73,20,40.13,52.34,80.45,91,108.74-56.56-4.76-107-29.3-147-67.69,1.45-1.57,3.12-2.9,4.63-4.4l-1.06-1.06s-4.36-4.42-9.64-9.7c-1.54,1.35-3.12,2.65-4.65,4-38.5-42.65-59.43-93.91-61.87-151.92l91-.17,8.41.26a279.64,279.64,0,0,0,6.38,54.75,48.23,48.23,0,0,1,20.95,20.6c-7-22.81-11.53-46.77-12.49-69.71l.25-5.8,89.23-.14a48.76,48.76,0,0,1,13.24-14.6l-102.86,0a293.82,293.82,0,0,1,4.62-43.59L130.5,210l-8.07-8.15-3-3a297.2,297.2,0,0,0-5.85,52L14.92,251l-.36-.35.64-18.29c1.07-.79-.2-2.31.61-3.36,6.53-50.43,25.69-96.75,61.18-135,5.81,5.55,11.88,10.72,18.06,15.7a47.78,47.78,0,0,1,11.81-9.37,179.5,179.5,0,0,1-19.18-17c41.58-39.75,92.88-63.5,150.2-67.74A320.52,320.52,0,0,0,157.38,102a48.31,48.31,0,0,1,11,10.57C189.23,78,219.08,46.5,252.7,23.29l-.57,128.39a235.9,235.9,0,0,1-73.76-13c.07,1.12.34,2.17.34,3.31A47.68,47.68,0,0,1,177,154c24.08,7.73,49.65,12.52,75.36,12.72l-.34,75.73a45.68,45.68,0,0,1,7.39-.76,46.42,46.42,0,0,1,8,.82l-.18-75.13,0-1.17A249.21,249.21,0,0,0,358.47,145l-2.3-2.34s-4-4.07-9-9.08a219.11,219.11,0,0,1-79.8,17.65l.2-125.26c17.94,11.76,35.24,26.91,50.6,43.69A47.14,47.14,0,0,1,325,55a306.68,306.68,0,0,0-45.23-39.36,248.69,248.69,0,0,1,75,19.86,47.46,47.46,0,0,1,9.53-1,48.09,48.09,0,0,1,46.27,35.52c4.86,4,9.63,8.2,14.26,12.67-4.52,4.58-9.39,8.91-14.37,13.09-2.33,8.1-6.77,15.51-14.15,22.83-4.22,4.18-10.07,10-14.93,14.88a246.66,246.66,0,0,0,53.82-39.65A233,233,0,0,1,481,167.18a48,48,0,0,1,19.15,38.2,45.21,45.21,0,0,1-4.58,20.18c1,8.2,1.77,16.54,2,25l-22.93,0C467.3,258,460,265.26,460,265.26l-.06.07ZM388.24,110.6C396.82,102.08,401,93.89,401,82.72A36.7,36.7,0,0,0,333,63.58a36.29,36.29,0,0,0-5.29,17.07c0,.7-.21,1.36-.21,2.07,0,11.17,4.89,20.14,12.79,27.88,4.79,4.7,12.57,12.49,18,17.92l6,6.06s11.07-11.11,19.7-19.69C385.46,113.34,386.94,111.88,388.24,110.6ZM364.54,98.17A16.7,16.7,0,0,1,348,82.09c0-.17-.05-.35-.05-.55a16.62,16.62,0,1,1,16.63,16.63ZM98.73,326.58a36.79,36.79,0,0,0-36.79,36.8c0,11.13,4.89,20.12,12.81,27.89,3.92,3.87,9.9,9.83,14.9,14.86l9.08,9.15s15.43-15.49,24-24A43.08,43.08,0,0,0,133,376.37a32.62,32.62,0,0,0,2-8,38,38,0,0,0,.52-5,36.91,36.91,0,0,0-36.81-36.8Zm.33,52.24a16.63,16.63,0,1,1,16.61-16.63A16.65,16.65,0,0,1,99.05,378.82ZM259.46,253.07a37.15,37.15,0,0,0-36.78,36.78c0,11.16,4.9,20.12,12.79,27.89,4.41,4.31,11.3,11.23,16.59,16.55,4.2,4.21,7.39,7.45,7.39,7.45l7.62-7.65c5.12-5.13,11.74-11.74,16.39-16.36,8.59-8.52,12.8-16.73,12.8-27.89a37.13,37.13,0,0,0-36.8-36.78Zm7.74,50.4a16,16,0,0,1-15.08-.11,16.62,16.62,0,1,1,15.08.11Zm-105-179.91A36.72,36.72,0,0,0,93.75,142c0,11.13,4.9,20.11,12.8,27.87,4.19,4.11,10.65,10.57,15.82,15.77,4.57,4.6,8.15,8.23,8.15,8.23l7-7c5.2-5.2,12.15-12.16,17-17,6.3-6.24,10.17-12.34,11.83-19.5a37.19,37.19,0,0,0,1-8.38,35.72,35.72,0,0,0-.84-7.65A36.13,36.13,0,0,0,162.22,123.56Zm-31.38,33.83h-.14a16.63,16.63,0,0,1-16.49-16.62,16.63,16.63,0,0,1,33.25,0A16.62,16.62,0,0,1,130.84,157.39ZM476,233.26c8.6-8.54,12.76-16.76,12.76-27.88a36.78,36.78,0,1,0-73.56,0c0,11.13,4.89,20.13,12.8,27.88,4.65,4.55,12.1,12,17.48,17.41l6.52,6.57s2.8-2.78,6.58-6.58C463.75,245.42,471,238.17,476,233.26Zm-23.69-12.45a16.62,16.62,0,1,1,16.62-16.64A16.63,16.63,0,0,1,452.27,220.81Z" fill="#231f20"/></svg>